<?xml version="1.0" encoding="utf-8"?>
<!-- Generator: Adobe Illustrator 19.0.0, SVG Export Plug-In . SVG Version: 6.00 Build 0)  -->
<svg version="1.1" id="Layer_1" xmlns="http://www.w3.org/2000/svg" xmlns:xlink="http://www.w3.org/1999/xlink" x="0px" y="0px"
	 viewBox="0 0 213.5 56.2" style="enable-background:new 0 0 213.5 56.2;" xml:space="preserve">
<style type="text/css">
	.st0{fill:#646569;}
	.st1{fill:#346094;}
</style>
<g>
	<g>
		<path class="st0" d="M59,16.9v22.6h-4h0V29.3H44.8v10.2h-4V16.9h4v9H55v-9h0H59z M36.8,39.5L36.8,39.5h-4V16.9h4V39.5z M29,39.5
			L29,39.5h-4.2L14.5,22.8h-0.1v16.6h-3.8l0,0V16.9l0,0h4.2h0l10.3,16.6h0.1V16.9H29V39.5z M72.9,28.1L59,2.8H7.5
			c-2.6,0-4.7,2.1-4.7,4.7v41.2c0,2.6,2.1,4.7,4.7,4.7h51.4L72.9,28.1z"/>
		<path class="st0" d="M62.4,53.4l14-25.3l-14-25.3H66c1.9,0,4.2,1.4,5.2,3l12.3,22.2L71.1,50.3c-0.9,1.7-3.2,3-5.2,3H62.4z"/>
		<path class="st1" d="M62.4,53.4l14-25.3l-14-25.3H66c1.9,0,4.2,1.4,5.2,3l12.3,22.2L71.1,50.3c-0.9,1.7-3.3,3-5.2,3H62.4z"/>
		<path class="st0" d="M204.1,49c0,1.7,1.4,2.5,3.2,2.5c1.5,0,3.2-0.6,3.2-2.4c0-1.4-1.2-1.9-2.3-2.1c-1.2-0.3-2.4-0.4-2.4-1.2
			c0-0.6,0.9-0.7,1.3-0.7c0.7,0,1.3,0.2,1.5,1h1.7c-0.2-1.6-1.5-2.2-3-2.2c-1.3,0-3,0.5-3,2.1c0,1.5,1.1,1.9,2.3,2.2
			c1.2,0.3,2.3,0.4,2.4,1.2c0,0.8-1,1-1.6,1c-0.9,0-1.6-0.3-1.6-1.3H204.1z M198.1,47.1c0-1.1,0.8-1.9,1.9-1.9
			c1.1,0,1.8,0.9,1.8,1.9H198.1z M203.5,48.2c0.3-2.2-1.1-4.2-3.4-4.2c-2.2,0-3.5,1.8-3.5,3.8c0,2.2,1.3,3.8,3.6,3.8
			c1.6,0,2.9-0.9,3.3-2.5h-1.5c-0.3,0.8-0.8,1.2-1.8,1.2c-1.3,0-2-1-2-2.1H203.5z M189.5,49c0,1.7,1.4,2.5,3.2,2.5
			c1.5,0,3.2-0.6,3.2-2.4c0-1.4-1.2-1.9-2.3-2.1c-1.2-0.3-2.4-0.4-2.4-1.2c0-0.6,0.9-0.7,1.3-0.7c0.7,0,1.3,0.2,1.5,1h1.7
			c-0.2-1.6-1.5-2.2-3-2.2c-1.3,0-3,0.5-3,2.1c0,1.5,1.1,1.9,2.3,2.2c1.2,0.3,2.3,0.4,2.4,1.2c0,0.8-1,1-1.6,1
			c-0.9,0-1.6-0.3-1.6-1.3H189.5z M188.4,46c0-1.5-1.5-2.1-2.9-2.1c-1.6,0-3.2,0.5-3.3,2.4h1.6c0.1-0.8,0.7-1.2,1.6-1.2
			c0.6,0,1.5,0.2,1.5,1c0,0.9-1,0.8-2.2,1c-1.3,0.2-2.8,0.5-2.8,2.3c0,1.4,1.2,2.1,2.5,2.1c0.9,0,1.9-0.3,2.5-0.9
			c0.1,0.7,0.6,0.9,1.2,0.9c0.3,0,0.8-0.1,1-0.2v-1.1c-0.2,0-0.3,0-0.4,0c-0.3,0-0.4-0.2-0.4-0.5V46z M186.8,48.9
			c0,1-1.1,1.4-1.8,1.4c-0.6,0-1.5-0.2-1.5-0.9c0-0.8,0.6-1.1,1.3-1.2c0.7-0.1,1.5-0.1,2-0.4V48.9z M176,47.1c0-1.1,0.8-1.9,1.9-1.9
			c1.1,0,1.8,0.9,1.8,1.9H176z M181.3,48.2c0.3-2.2-1.1-4.2-3.4-4.2c-2.2,0-3.5,1.8-3.5,3.8c0,2.2,1.3,3.8,3.6,3.8
			c1.6,0,2.9-0.9,3.3-2.5h-1.5c-0.3,0.8-0.8,1.2-1.8,1.2c-1.3,0-2-1-2-2.1H181.3z M167.3,49c0,1.7,1.4,2.5,3.2,2.5
			c1.5,0,3.2-0.6,3.2-2.4c0-1.4-1.2-1.9-2.3-2.1c-1.2-0.3-2.4-0.4-2.4-1.2c0-0.6,0.9-0.7,1.3-0.7c0.7,0,1.3,0.2,1.5,1h1.7
			c-0.2-1.6-1.5-2.2-3-2.2c-1.3,0-3,0.5-3,2.1c0,1.5,1.2,1.9,2.3,2.2c1.2,0.3,2.3,0.4,2.4,1.2c0,0.8-1,1-1.6,1
			c-0.9,0-1.6-0.3-1.6-1.3H167.3z M164.6,42.9h1.6v-1.5h-1.6V42.9z M164.6,51.4h1.6v-7.3h-1.6V51.4z M154.9,51.4h4.2
			c3.1,0,4.4-2.2,4.4-5c0-2.8-1.3-5-4.4-5h-4.2V51.4z M156.7,42.8h1.7c2.8,0,3.3,1.6,3.3,3.6c0,2-0.6,3.6-3.3,3.6h-1.7V42.8z
			 M143.6,49c0,1.7,1.4,2.5,3.2,2.5c1.5,0,3.2-0.6,3.2-2.4c0-1.4-1.2-1.9-2.3-2.1c-1.2-0.3-2.4-0.4-2.4-1.2c0-0.6,0.9-0.7,1.3-0.7
			c0.7,0,1.3,0.2,1.5,1h1.7c-0.2-1.6-1.5-2.2-3-2.2c-1.3,0-3,0.5-3,2.1c0,1.5,1.2,1.9,2.3,2.2c1.2,0.3,2.3,0.4,2.4,1.2
			c0,0.8-1,1-1.6,1c-0.9,0-1.6-0.3-1.6-1.3H143.6z M142.6,44.1H141v4.2c0,1.1-0.4,2-1.8,2c-0.9,0-1.4-0.5-1.4-1.7v-4.5h-1.6v4.6
			c0,1.9,0.8,2.9,2.7,2.9c0.8,0,1.7-0.5,2.1-1.2h0v1h1.6V44.1z M131.4,51.6c2.3,0,3.7-1.6,3.7-3.8c0-2.2-1.3-3.8-3.7-3.8
			c-2.3,0-3.7,1.6-3.7,3.8C127.8,50,129.1,51.6,131.4,51.6 M131.4,50.3c-1.4,0-2.1-1.3-2.1-2.6c0-1.2,0.6-2.6,2.1-2.6
			c1.4,0,2.1,1.3,2.1,2.6C133.5,49,132.9,50.3,131.4,50.3 M125,42.9h1.6v-1.5H125V42.9z M125,51.4h1.6v-7.3H125V51.4z M119.8,45.3
			h1.2v4.3c0,1.2,0.3,1.9,2,1.9c0.4,0,0.7-0.1,1-0.1v-1.2c-0.2,0.1-0.5,0.1-0.7,0.1c-0.7,0-0.8-0.3-0.8-1v-3.9h1.4v-1.2h-1.4v-2.2
			H121v2.2h-1.2V45.3z M119.5,46.5c-0.2-1.8-1.6-2.6-3.3-2.6c-2.4,0-3.6,1.7-3.6,3.9c0,2.1,1.2,3.8,3.5,3.8c1.9,0,3-1,3.3-2.9h-1.6
			c-0.2,1-0.8,1.7-1.7,1.7c-1.4,0-1.9-1.3-1.9-2.5c0-2.2,1.2-2.6,2-2.6c0.9,0,1.5,0.5,1.7,1.4H119.5z M106.7,47.1
			c0-1.1,0.8-1.9,1.9-1.9c1.1,0,1.8,0.9,1.8,1.9H106.7z M112,48.2c0.3-2.2-1.1-4.2-3.4-4.2c-2.2,0-3.5,1.8-3.5,3.8
			c0,2.2,1.3,3.8,3.6,3.8c1.6,0,2.9-0.9,3.3-2.5h-1.5c-0.3,0.8-0.8,1.2-1.8,1.2c-1.3,0-2-1-2-2.1H112z M100.6,45.3h1.2v6.1h1.6v-6.1
			h1.4v-1.2h-1.4v-0.7c0-0.6,0.4-0.8,0.8-0.8c0.3,0,0.5,0,0.7,0.1v-1.2c-0.3-0.1-0.6-0.1-1.1-0.1c-1,0-2,0.3-2,2.2v0.6h-1.2V45.3z
			 M93.5,51.4h1.6v-4.3c0-1.1,0.7-1.9,1.8-1.9c0.9,0,1.4,0.5,1.4,1.6v4.6h1.6v-5c0-1.6-1-2.5-2.6-2.5c-1,0-1.8,0.5-2.3,1.3l0,0v-1.1
			h-1.5V51.4z M90,51.4h1.8v-10H90V51.4z"/>
		<path class="st0" d="M158.4,23.5h-1.6v3.7h0c-0.5-0.8-1.5-1.1-2.4-1.1c-1.6,0-3.1,1.1-3.1,3.8c0,2.2,1.1,3.9,3.4,3.9
			c0.9,0,1.8-0.4,2.2-1.2h0v1h1.5V23.5z M152.8,30c0-1.3,0.5-2.6,2-2.6c1.2,0,2,1,2,2.6c0,1.3-0.6,2.6-2,2.6
			C153.4,32.5,152.8,31.3,152.8,30 M143.8,33.6h1.6v-4.3c0-1.1,0.7-1.9,1.8-1.9c0.9,0,1.4,0.5,1.4,1.6v4.6h1.6v-5
			c0-1.6-1-2.5-2.6-2.5c-1,0-1.8,0.5-2.3,1.3l0,0v-1.1h-1.5V33.6z M142.3,28.2c0-1.5-1.5-2.1-2.9-2.1c-1.6,0-3.2,0.5-3.3,2.4h1.6
			c0.1-0.8,0.7-1.1,1.6-1.1c0.6,0,1.5,0.2,1.5,1c0,0.9-1,0.8-2.2,1c-1.3,0.2-2.8,0.4-2.8,2.3c0,1.4,1.2,2.1,2.5,2.1
			c0.9,0,1.9-0.3,2.5-0.9c0.1,0.7,0.6,0.9,1.2,0.9c0.3,0,0.8-0.1,1-0.2v-1.1c-0.2,0-0.3,0-0.4,0c-0.3,0-0.4-0.2-0.4-0.5V28.2z
			 M140.7,31.1c0,1-1.1,1.4-1.8,1.4c-0.6,0-1.5-0.2-1.5-0.9c0-0.8,0.6-1.1,1.3-1.2c0.7-0.1,1.5-0.1,2-0.4V31.1z M127.5,33.5
			l-0.2,0.6c-0.2,0.6-0.4,1-1.1,1c-0.3,0-0.5-0.1-0.8-0.1v1.3c0.4,0.1,0.7,0.1,1.1,0.1c1.7,0,2.1-1.2,2.6-2.5l2.8-7.7h-1.7l-1.8,5.4
			h0l-1.9-5.4h-1.8L127.5,33.5z M124.2,26.3h-1.6v1h0c-0.4-0.8-1.2-1.2-2.1-1.2c-2.1,0-3.3,1.7-3.3,3.6c0,2.1,1,3.8,3.3,3.8
			c0.9,0,1.7-0.5,2.2-1.3h0v1.1c0,1.2-0.6,1.9-1.9,1.9c-0.8,0-1.5-0.2-1.7-1.1h-1.6c0.1,1.7,1.8,2.3,3.2,2.3c2.3,0,3.6-1.1,3.6-3.3
			V26.3z M120.6,32.3c-1.3,0-1.9-1.2-1.9-2.4c0-1.2,0.5-2.5,1.9-2.5c1.4,0,2,1.1,2,2.4C122.6,31,122,32.3,120.6,32.3 M112.8,33.6
			h1.6v-3.5c0-1.6,0.9-2.5,2-2.5c0.2,0,0.5,0,0.7,0.1v-1.5c-0.1,0-0.2,0-0.6,0c-1,0-1.9,0.8-2.1,1.6h0v-1.4h-1.5V33.6z M106.4,29.3
			c0-1.1,0.8-1.9,1.9-1.9c1.1,0,1.8,0.9,1.8,1.9H106.4z M111.8,30.4c0.3-2.2-1.1-4.2-3.4-4.2c-2.2,0-3.5,1.8-3.5,3.8
			c0,2.2,1.3,3.8,3.6,3.8c1.6,0,2.9-0.9,3.3-2.5h-1.5c-0.3,0.8-0.8,1.2-1.8,1.2c-1.3,0-2-1-2-2.1H111.8z M102.1,33.6h1.6v-10h-1.6
			V33.6z M99,33.6h1.6v-10H99V33.6z M88.9,33.6h1.8l0.9-2.7h4l0.9,2.7h1.9l-3.9-10h-1.9L88.9,33.6z M93.6,25.3L93.6,25.3l1.5,4.3
			h-3.1L93.6,25.3z"/>
		<path class="st0" d="M206.3,9.7h1.2v6.1h1.6V9.7h1.4V8.5h-1.4V7.8c0-0.6,0.4-0.8,0.8-0.8c0.3,0,0.5,0,0.7,0.1V5.9
			c-0.3-0.1-0.6-0.1-1.1-0.1c-1,0-2,0.3-2,2.2v0.6h-1.2V9.7z M202.3,16c2.3,0,3.7-1.6,3.7-3.8c0-2.2-1.3-3.8-3.7-3.8
			c-2.3,0-3.7,1.6-3.7,3.8C198.6,14.4,200,16,202.3,16 M202.3,14.7c-1.4,0-2.1-1.3-2.1-2.6c0-1.3,0.6-2.6,2.1-2.6
			c1.4,0,2.1,1.3,2.1,2.6C204.4,13.4,203.7,14.7,202.3,14.7 M189,11.5c0-1.1,0.8-1.9,1.9-1.9c1.1,0,1.8,0.9,1.8,1.9H189z
			 M194.3,12.6c0.3-2.2-1.1-4.2-3.4-4.2c-2.2,0-3.5,1.8-3.5,3.8c0,2.2,1.3,3.8,3.6,3.8c1.6,0,2.9-0.9,3.3-2.5h-1.5
			c-0.3,0.8-0.8,1.2-1.8,1.2c-1.3,0-2-1-2-2.2H194.3z M182.6,9.7h1.2V14c0,1.2,0.3,1.9,2,1.9c0.4,0,0.7-0.1,1-0.1v-1.2
			c-0.2,0.1-0.5,0.1-0.7,0.1c-0.7,0-0.8-0.3-0.8-1V9.7h1.4V8.5h-1.4V6.3h-1.6v2.2h-1.2V9.7z M181.9,8.5h-1.6v4.2c0,1.1-0.5,2-1.8,2
			c-0.9,0-1.4-0.5-1.4-1.7V8.5h-1.6v4.6c0,1.9,0.8,2.8,2.7,2.8c0.8,0,1.7-0.5,2.1-1.2h0v1h1.6V8.5z M170.4,9.7h1.2V14
			c0,1.2,0.3,1.9,2,1.9c0.4,0,0.7-0.1,1-0.1v-1.2c-0.2,0.1-0.4,0.1-0.7,0.1c-0.7,0-0.8-0.3-0.8-1V9.7h1.4V8.5h-1.4V6.3h-1.6v2.2
			h-1.2V9.7z M168,7.3h1.6V5.8H168V7.3z M168,15.8h1.6V8.5H168V15.8z M162.8,9.7h1.2V14c0,1.2,0.3,1.9,2,1.9c0.4,0,0.7-0.1,1-0.1
			v-1.2c-0.2,0.1-0.4,0.1-0.7,0.1c-0.7,0-0.8-0.3-0.8-1V9.7h1.4V8.5h-1.4V6.3H164v2.2h-1.2V9.7z M156.1,13.5c0,1.7,1.4,2.5,3.2,2.5
			c1.5,0,3.2-0.6,3.2-2.4c0-1.4-1.2-1.9-2.3-2.1c-1.2-0.3-2.4-0.4-2.4-1.2c0-0.6,0.9-0.7,1.3-0.7c0.7,0,1.3,0.2,1.5,1h1.7
			c-0.2-1.6-1.5-2.2-3-2.2c-1.3,0-3,0.5-3,2.1c0,1.5,1.2,1.9,2.3,2.1c1.2,0.3,2.3,0.4,2.4,1.2c0,0.8-1,1-1.6,1
			c-0.9,0-1.6-0.3-1.6-1.3H156.1z M148.7,15.8h1.6v-4.3c0-1.1,0.7-1.9,1.8-1.9c0.9,0,1.4,0.5,1.4,1.6v4.6h1.6v-5
			c0-1.6-1-2.5-2.6-2.5c-1,0-1.8,0.5-2.3,1.3l0,0V8.5h-1.5V15.8z M145.3,15.8h1.8v-10h-1.8V15.8z M138.3,15.8h1.6v-10h-1.6V15.8z
			 M136.8,10.4c0-1.5-1.5-2.1-2.9-2.1c-1.6,0-3.2,0.5-3.3,2.4h1.6c0.1-0.8,0.7-1.2,1.6-1.2c0.6,0,1.5,0.2,1.5,1c0,0.9-1,0.8-2.2,1
			c-1.4,0.2-2.8,0.5-2.8,2.3c0,1.4,1.2,2.1,2.5,2.1c0.9,0,1.9-0.3,2.5-0.9c0.1,0.7,0.6,0.9,1.2,0.9c0.3,0,0.8-0.1,1-0.2v-1.1
			c-0.2,0-0.3,0-0.4,0c-0.3,0-0.4-0.2-0.4-0.5V10.4z M135.2,13.3c0,1-1.1,1.4-1.8,1.4c-0.6,0-1.5-0.2-1.5-0.9c0-0.8,0.6-1.1,1.3-1.2
			c0.7-0.1,1.5-0.1,2-0.4V13.3z M122.9,15.8h1.6v-4.3c0-1.1,0.7-1.9,1.8-1.9c0.9,0,1.4,0.5,1.4,1.6v4.6h1.6v-5c0-1.6-1-2.5-2.6-2.5
			c-1,0-1.8,0.5-2.3,1.3l0,0V8.5h-1.5V15.8z M118.1,16c2.3,0,3.7-1.6,3.7-3.8c0-2.2-1.3-3.8-3.7-3.8c-2.3,0-3.7,1.6-3.7,3.8
			C114.5,14.4,115.8,16,118.1,16 M118.1,14.7c-1.4,0-2.1-1.3-2.1-2.6c0-1.3,0.6-2.6,2.1-2.6c1.4,0,2.1,1.3,2.1,2.6
			C120.2,13.4,119.6,14.7,118.1,14.7 M111.7,7.3h1.6V5.8h-1.6V7.3z M111.7,15.8h1.6V8.5h-1.6V15.8z M106.5,9.7h1.2V14
			c0,1.2,0.3,1.9,2,1.9c0.3,0,0.7-0.1,1-0.1v-1.2c-0.2,0.1-0.5,0.1-0.7,0.1c-0.7,0-0.8-0.3-0.8-1V9.7h1.4V8.5h-1.4V6.3h-1.6v2.2
			h-1.2V9.7z M105.8,10.4c0-1.5-1.5-2.1-2.9-2.1c-1.6,0-3.2,0.5-3.3,2.4h1.6c0.1-0.8,0.7-1.2,1.6-1.2c0.6,0,1.5,0.2,1.5,1
			c0,0.9-1,0.8-2.2,1c-1.3,0.2-2.8,0.5-2.8,2.3c0,1.4,1.2,2.1,2.5,2.1c0.9,0,1.9-0.3,2.5-0.9c0.1,0.7,0.6,0.9,1.2,0.9
			c0.3,0,0.8-0.1,1-0.2v-1.1c-0.2,0-0.3,0-0.4,0c-0.3,0-0.4-0.2-0.4-0.5V10.4z M104.2,13.3c0,1-1.1,1.4-1.8,1.4
			c-0.6,0-1.5-0.2-1.5-0.9c0-0.8,0.6-1.1,1.3-1.2c0.7-0.1,1.5-0.1,2-0.4V13.3z M90,15.8h1.7V8.4h0l4.6,7.4h1.9v-10h-1.7v7.4h0
			l-4.6-7.4H90V15.8z"/>
	</g>
</g>
</svg>
